<?xml version="1.0" encoding="utf-8"?>
<!-- Generator: Adobe Illustrator 19.0.0, SVG Export Plug-In . SVG Version: 6.00 Build 0)  -->
<svg version="1.1" id="Capa_1" xmlns="http://www.w3.org/2000/svg" xmlns:xlink="http://www.w3.org/1999/xlink" x="0px" y="0px"
	 viewBox="0 0 251 200.8" style="enable-background:new 0 0 251 200.8;" xml:space="preserve">
<g id="XMLID_24_">
	<g id="XMLID_1_">
		<path id="XMLID_171_" d="M11.2,50.8c0,10.4,0.2,20.7-0.1,31.1c-0.1,2.8-0.9,6-2.3,8.4c-12.3,20.8-9,46,7.9,63.3
			c14.5,14.8,32.4,22.6,52.4,26.9c6.2,1.3,12.3,3.7,18.6,4.5c5.1,0.6,10.5,0.1,15.6-0.9c8.3-1.7,16.5-4.3,24.7-6.6
			c21.4-6,39.5-16.9,50.1-36.8c9.5-17.9,9-35.9-3.3-52.8c-1.1-1.6-1.8-3.9-1.8-5.8c-0.1-20.5-0.1-40.9-0.1-61.4c0-0.9,0.2-1.8,0-2.6
			c-0.7-1.8-1.2-4.3-2.5-4.9c-1.3-0.6-3.9,0.5-5.2,1.6c-6.4,6-12.6,12.3-18.8,18.5c-6.4,6.4-12.8,12.7-19.1,19.2
			c-2.1,2.2-4.3,2.8-7.1,2.1c-10.8-2.6-21.9-3.7-32.9-2.8c-7.4,0.6-14.7,1.7-22,3.1c-2.8,0.5-4.4,0-6.3-1.9
			C46.4,40.7,33.8,28.5,21.3,16.3c-0.8-0.8-1.5-1.9-2.5-2.3c-1.7-0.6-3.8-1.3-5.2-0.7c-1.2,0.5-2.3,2.7-2.3,4.2
			C11.1,28.6,11.2,39.7,11.2,50.8z"/>
		<path id="XMLID_170_" d="M181.4,60.2c0,8.5,0,16.3,0,24c0,0.8,0.3,1.7,0.8,2.4c13.6,17,13.8,35.3,5.8,54.6
			c-5.6,13.5-14.4,24.2-27.4,31.3c-0.7,0.4-1.4,0.9-2.5,1.6c6.3,2.7,12.5,3,18.4,1.7c10.6-2.5,21.2-5.3,31.5-8.9
			c15.9-5.6,29.1-15.1,36.7-30.4c7.6-15.5,7-30.7-3.4-45.2c-1.3-1.7-1.7-4.4-1.7-6.6c-0.1-17.5-0.1-34.9-0.1-52.4
			c0-1.2,0.1-2.5-0.2-3.7c-0.5-2.6-2.5-3.5-4.7-2c-1.2,0.8-2.3,1.9-3.4,3c-10.2,10.2-20.4,20.3-30.5,30.6c-2.2,2.2-4.4,2.9-7.4,2.3
			C189.6,61.5,185.8,61,181.4,60.2z"/>
		<path id="XMLID_169_" d="M99.1,46.5c6.1,0.7,11.9,0.8,17.4,2.3c4,1.1,6,0,7.7-2.6c-6.3-6.5-12.5-13-18.9-19.3
			c-2.5-2.4-6-1.3-6.1,1.9C98.9,34.8,99.1,40.7,99.1,46.5z"/>
	</g>
</g>
</svg>
