<?xml version="1.0" encoding="utf-8"?>
<!-- Generator: Adobe Illustrator 19.0.0, SVG Export Plug-In . SVG Version: 6.00 Build 0)  -->
<svg version="1.1" id="Capa_1" xmlns="http://www.w3.org/2000/svg" xmlns:xlink="http://www.w3.org/1999/xlink" x="0px" y="0px"
	 viewBox="0 0 136 140" style="enable-background:new 0 0 136 140;" xml:space="preserve">
<style type="text/css">
	.st0{fill:#FFFFFF;}
</style>
<g>
	<path id="XMLID_63_" d="M3.6,70.3C3.2,38.1,29.2,7,67.1,7c36.9-0.1,63.8,29.5,63.8,64.1c0,34.8-28.9,63.4-64,63.3
		C31.8,134.3,3.6,105.7,3.6,70.3z M55.4,104.8c3.5,0.2,4.9-0.4,6.2-2.7c-0.8-1.6-4-2.2-2-4.8c1.2-1.5,6-2,7.2-0.6
		c2.2,2.5-1.3,3.4-1.7,5.2c3.2,2.5,6,2.5,7.2,0.4c1.6-0.2,3-0.3,4.4-0.5c0-0.3,0-0.5,0-0.8c-0.6-0.4-1.2-0.9-2.3-1.6
		c1.8-0.6,3.2-1.1,4.6-1.6c-0.1-0.2-0.2-0.3-0.2-0.5c-0.7-0.2-1.4-0.3-2.6-0.6c1.6-1.5,3.7-2.3,3.7-4.6c0.6,0.1,1.3,0,1.8,0.3
		c0.4,0.2,0.5,0.9,0.7,1.3c3.6-0.4,6.7-2.8,10.5-1.7c-0.6,0.6-1.2,1-1.9,1.2c-2.5,0.8-5,1.7-7.5,2.3c-1.5,0.4-2.2,1.2-1.9,2.8
		c4.2,0.9,8.8-0.7,12.9,1.3c-1,0.5-1.9,0.8-2.9,0.8c-2.7,0.1-5.4,0.1-8.2,0c-2.5-0.1-4.2,0.9-5.3,3.4c4.1,1.6,8.1,3.2,12.1,4.8
		c-0.1,0.3-0.1,0.7-0.2,1c-0.7,0-1.5,0.2-2.2,0c-3.2-1.1-6.3-2.3-9.4-3.6c-2-0.9-4-0.9-5.6,0.6c-4.4,4.3-9.3,4.7-14.7,2
		c-4-2-7.9-2.2-11.6,0.8c-1.3,1-3,1.5-4.5,2.3c-0.2-0.3-0.4-0.7-0.6-1c2.5-1.7,5-3.3,7.4-4.9c-0.9-2.1-2.2-2.5-4.1-1.9
		c-2.1,0.6-4.3,1.1-6.5,1.6c-0.8,0.2-1.8,0-2.6,0c-0.1-0.3-0.1-0.7-0.2-1c3.5-1,6.9-1.9,10.4-2.9c-0.8-2.6-0.8-2.6-3.1-2.7
		c-0.9,0-1.8,0-2.6-0.2c-3.5-0.5-4-0.4-5.6,2.9c-0.8,1.6-1.4,3.4-1.7,5.2c-0.6,3-1.6,5.7-4,7.7c-0.6,0.5-1,1.1-1.7,1.8
		c0.9,0.7,1.6,1.4,2.3,2c13.4,10.2,28.3,14.7,45.1,12.6c14.3-1.8,26.3-8,36.2-18.3c0.8-0.8,1.3-2.6,0.9-3.6
		c-1.2-3.4-2.5-6.7-4.2-9.8c-1.9-3.4-3.4-6.8-3.1-10.8c0.2-3.5-0.1-7,0.1-10.6c0.3-9.6-3.8-18-6.9-27c-0.4,0.8-0.5,1.3-0.7,1.6
		c-0.6,0.7-1.3,1.4-1.9,2.1c-0.2-0.9-0.5-1.9-0.4-2.8c0.1-2,0.7-3.9,0.6-5.9c-0.1-3.3-0.5-6.5-0.8-9.8c-0.3-3.7-0.6-7.3-3.1-10.4
		c-1.3-1.5-2.9-2.4-4.6-1.4c-2,1.2-3.9,2.8-5.5,4.5c-4.7,5-6.8,11.5-9.8,17.4c-0.6,1.1-1.7,2-2.5,3c-1.7-1.5-0.1-2.8,0.4-4.1
		c1.2-2.9,2.5-5.7,3.9-8.8c-7.6-0.3-14.7,0-21.4,2.7c-3.1,1.2-6.2,2.5-8.8,3.5c1.7,2.1,3.7,4.6,5.6,7.3c0.3,0.5,0.1,1.4,0.2,2.1
		c-0.7-0.3-1.8-0.3-2.1-0.8c-4.8-7.4-11.9-11.6-20.1-14.3c-1.3-0.4-2.8-0.1-4.2-0.1c0.2,1.6,0.4,3.2,0.7,4.7c0,0.1,0.2,0.3,0.3,0.4
		c3.3,5.5,7.2,10.6,8.1,17.4c0.4,2.9,1,5.7,0.4,8.7c-0.8,3.8-1.4,7.7-1.5,11.6c-0.1,6,3.3,10.6,6.9,15.1c2,2.5,3.9,2.5,6.6,2.3
		c2.7-0.1,5.5,0.4,8.3,0.7c0,0.4,0,0.7,0,1.1c-1.2,0.3-2.5,0.5-3.8,0.8c0.6,3.5,4-0.5,4.9,2.2c-0.8,0.5-1.7,1-2.6,1.6
		c1.6,2.5,3.2-0.5,5,0.1C55.4,103.5,55.4,104.1,55.4,104.8z M114.8,107.4c12.2-13.1,17.6-38.7,8.2-60.5C112.4,22.7,87.6,7.7,62,10.1
		c-26.1,2.4-47.9,21.2-54,46.4C2.4,80.3,12.7,104,25.6,114c2.3-1.7,4.3-3.8,4.7-6.7c0.6-4.3,2.4-8.1,5.2-11.4
		c-1.1-1.4-2.1-2.6-3.1-3.8c-3.2-4.2-5-8.9-4.6-14.3c0.3-3,0.8-6,1.2-9c0.3-2.2,1.1-4.6,0.5-6.6c-1.2-4.8-1.7-9.9-5-14.1
		c-1.4-1.8-2.6-3.8-3.7-5.9c-0.7-1.4-1.3-3-1.4-4.5c-0.2-2.5,1.4-4.1,3.9-4.1c1.1,0,2.3,0,3.3,0.4c2.6,0.8,5.1,1.8,7.6,2.8
		c5.1,2,10.2,3.8,15.4,0.2c0.7-0.5,1.6-0.6,2.4-0.9c6.6-2.5,13.7-2.2,20.6-2.8c1-0.1,2.1-0.9,2.8-1.6c2.7-2.8,5-6,7.8-8.7
		c2.8-2.7,6.7-2.2,9.3,0.6c2.2,2.4,3.7,5.1,3.6,8.4c-0.2,7.3,1.9,14,4.5,20.6c2,5,4,10.2,4.9,15.5c1,6.3,0.8,12.7,1,19.1
		c0.1,4.1,1.2,7.8,3.3,11.3C111.8,101.3,113.2,104.4,114.8,107.4z M68.5,106.4c-4.9-2.3-5-2.3-7.6,0.3
		C63.9,108.3,66.1,108.3,68.5,106.4z"/>
	<path id="XMLID_1_" class="st0" d="M68.5,106.4c-2.5,1.9-4.7,1.9-7.6,0.3"/>
	<path id="XMLID_54_" d="M77.8,70.9c4.5,0,5.2,0.8,4.6,5.2c-0.6,4.8-5.5,7.9-10,6.5c-1.8-0.6-2.7-1.8-2.8-3.7
		C69.2,74.1,72.5,70.9,77.8,70.9z M78.7,78.7c-3.5,0.8-4.5,0.1-5.4-3.4c-1.4,1.5-1.9,3.4-1.1,4.4C73.2,80.9,76.1,80.6,78.7,78.7z"/>
	<path id="XMLID_51_" d="M47.6,74.7c0.7,0.1,1.7,0.2,2.6,0.5c3.4,1.2,5.5,5.3,4.4,8.2c-1,2.5-5.1,3.7-8.4,2.4
		c-0.9-0.4-1.7-0.9-2.4-1.5c-2-1.8-3.2-5-2.4-6.9C42.6,75,45.1,75,47.6,74.7z M51.7,79.1c-0.2,0-0.5,0.1-0.7,0.1
		c-0.5,3-1.5,4-3.7,3.3c-0.7-0.2-1.7-0.8-1.7-1.4c-0.2-1.2,0.1-2.5,0.2-3.7c-2.1,0.5-2.3,0.9-1.6,2.9c1,2.8,2.6,3.8,5.5,3.2
		c0.9-0.2,2.2-0.7,2.4-1.4C52.4,81.3,51.9,80.1,51.7,79.1z"/>
	<path id="XMLID_3_" class="st0" d="M49.7,83.6c-2.9,0.6-4.5-0.5-5.5-3.2c-0.7-2.1-0.5-2.5,1.6-2.9c-0.1,1.2-0.4,2.5-0.2,3.7
		c0.1,0.5,1.1,1.2,1.7,1.4c2.2,0.6,3.2-0.4,3.7-3.3c0.2,0,0.5-0.1,0.7-0.1"/>
</g>
</svg>
